# xmcd
#
# Track frame offsets: 
#        150
#        20138
#        38690
#        61089
#        82198
#        107243
#        122944
#        142998
#        160895
#        181896
#        212756
#
# Disc length: 3124 seconds
#
# Revision: 0
# Processed by: cddbd v1.5.2PL0 Copyright (c) Steve Scherf et al.
# Submitted via: ExactAudioCopy v0.99pb5
#
DISCID=980c320b
DTITLE=Harmonica Shah - Deep Detroit
DYEAR=2000
DGENRE=Blues
TTITLE0=Dun Made My Getaway
TTITLE1=Flat Down On My Back
TTITLE2=Bloodstains Upside The Wall
TTITLE3=Mellow Down Easy
TTITLE4=What's On Your Mind
TTITLE5=Woman Let It Groove
TTITLE6=Don't Kick Me To The Curb
TTITLE7=Born Blind
TTITLE8=Do You Remember
TTITLE9=Once Upon A Time
TTITLE10=Repo Man
EXTD=
EXTT0=
EXTT1=
EXTT2=
EXTT3=
EXTT4=
EXTT5=
EXTT6=
EXTT7=
EXTT8=
EXTT9=
EXTT10=
PLAYORDER=
